<?xml version="1.0" encoding="UTF-8"?>
<svg version="1.1" xmlns="http://www.w3.org/2000/svg" width="512" height="512">
<path d="M0 0 C4.85300938 4.33673179 8.20994197 9.6684703 11.48046875 15.265625 C18.58261743 27.26036499 28.61264656 37.06555419 40.9375 43.625 C41.91976563 44.15609375 42.90203125 44.6871875 43.9140625 45.234375 C62.79162235 54.69657622 85.30003587 57.11330795 105.54150391 50.53857422 C111.4984283 48.26724641 117.20968109 45.32595772 122.83325195 42.3347168 C128.65337714 39.32413171 133.3406919 37.57887895 139.9375 38.625 C144.56277381 40.47510952 146.55219458 43.32394967 148.9375 47.625 C149.22927186 50.46922856 149.31657425 52.8877027 149.1875 55.70703125 C149.16478027 56.86569954 149.16478027 56.86569954 149.14160156 58.04777527 C149.07706161 61.32097587 148.96608004 64.59209231 148.85546875 67.86401367 C148.40402016 82.50787742 149.47706393 96.86879936 156.6875 110 C157.20183594 110.97839844 157.20183594 110.97839844 157.7265625 111.9765625 C168.22996121 131.45001704 184.39763337 145.46714266 205.59326172 151.97802734 C211.13107049 153.5063749 216.76279801 154.70547301 222.40063477 155.80200195 C228.42090657 157.02695285 233.59003533 158.22427406 237.26953125 163.5546875 C238.70627543 168.00775425 238.92341041 172.04234236 237.9375 176.625 C234.42122047 182.14248008 229.46417508 186.19977417 224.5 190.375 C209.9413624 203.02472533 201.95025033 222.16593614 199.1875 240.9375 C197.42768304 266.8948001 205.734147 288.01933602 221.8359375 307.78515625 C225.44883939 312.6672746 226.56603267 316.54918422 225.9375 322.625 C224.50189388 326.58923053 222.97985258 328.94674585 219.41015625 331.26953125 C214.91446366 333.0243179 210.78330181 333.26642989 206 333.5625 C182.46320254 335.47864063 161.43144682 344.38890353 145.625 362.3125 C131.15148402 380.64562025 126.74277161 400.89799959 126.45898438 423.88476562 C126.43255859 424.94244141 126.40613281 426.00011719 126.37890625 427.08984375 C126.36545166 428.034646 126.35199707 428.97944824 126.33813477 429.95288086 C125.66677867 434.43063375 123.65759396 436.99063151 120.3125 439.9375 C115.80370741 442.19189629 112.87759793 442.80525229 107.9375 441.625 C104.83439204 440.13965997 101.86519 438.5367215 98.87817383 436.83642578 C79.56342796 425.9606273 57.18935117 423.70563622 35.9375 429.625 C21.91215043 434.10546746 10.44215242 441.30115055 -0.0625 451.625 C-0.98482422 452.52798828 -0.98482422 452.52798828 -1.92578125 453.44921875 C-6.3843404 458.17426649 -9.58385566 463.5506335 -12.77954102 469.17041016 C-19.60347133 481.06527752 -19.60347133 481.06527752 -25.0625 482.625 C-29.54455178 483.05874695 -32.0224166 483.09197622 -36.125 481.25 C-40.97800938 476.91326821 -44.33494197 471.5815297 -47.60546875 465.984375 C-54.70761743 453.98963501 -64.73764656 444.18444581 -77.0625 437.625 C-78.04476562 437.09390625 -79.02703125 436.5628125 -80.0390625 436.015625 C-98.91662235 426.55342378 -121.42503587 424.13669205 -141.66650391 430.71142578 C-147.6234283 432.98275359 -153.33468109 435.92404228 -158.95825195 438.9152832 C-164.77837714 441.92586829 -169.4656919 443.67112105 -176.0625 442.625 C-180.68777381 440.77489048 -182.67719458 437.92605033 -185.0625 433.625 C-185.35427186 430.78077144 -185.44157425 428.3622973 -185.3125 425.54296875 C-185.29735352 424.77052322 -185.28220703 423.9980777 -185.26660156 423.20222473 C-185.20206161 419.92902413 -185.09108004 416.65790769 -184.98046875 413.38598633 C-184.52902016 398.74212258 -185.60206393 384.38120064 -192.8125 371.25 C-193.15539062 370.59773438 -193.49828125 369.94546875 -193.8515625 369.2734375 C-204.08553748 350.29949848 -220.0912461 335.95494876 -240.76904297 329.27197266 C-246.46700225 327.66460709 -252.29969745 326.52087484 -258.11914062 325.44799805 C-264.31809031 324.25413804 -269.6071762 323.18197934 -273.39453125 317.6953125 C-274.83096517 313.24320737 -275.05282 309.20598945 -274.0625 304.625 C-270.63257477 299.28267854 -265.89920493 295.28708839 -261.0625 291.25 C-246.36322253 278.67978454 -238.13455825 259.08859423 -235.3125 240.3125 C-233.55268304 214.3551999 -241.859147 193.23066398 -257.9609375 173.46484375 C-261.57383939 168.5827254 -262.69103267 164.70081578 -262.0625 158.625 C-260.62689388 154.66076947 -259.10485258 152.30325415 -255.53515625 149.98046875 C-251.03946366 148.2256821 -246.90830181 147.98357011 -242.125 147.6875 C-218.63029411 145.77478606 -197.65895506 136.88366715 -181.8125 119.0625 C-167.22901966 100.53625461 -163.00733292 80.82964101 -162.6328125 57.609375 C-162.601875 56.52914062 -162.5709375 55.44890625 -162.5390625 54.3359375 C-162.51924316 53.35931152 -162.49942383 52.38268555 -162.47900391 51.37646484 C-161.80702586 46.93731329 -159.49297226 43.48372689 -156.0625 40.625 C-150.26374128 38.69208043 -146.17563327 38.62429781 -140.6640625 41.234375 C-138.76414637 42.2733402 -136.88363777 43.34315711 -135.00170898 44.41430664 C-115.73130237 55.24449047 -93.30491442 57.42402408 -72.0625 51.625 C-58.03262768 47.26947809 -46.52485086 39.90727597 -36.0625 29.625 C-35.44761719 29.02300781 -34.83273438 28.42101562 -34.19921875 27.80078125 C-29.7406596 23.07573351 -26.54114434 17.6993665 -23.34545898 12.07958984 C-17.98059967 2.72804504 -11.63950664 -5.22590094 0 0 Z " fill="#772DBC" transform="translate(274.0625,15.375)"/>
<path d="M0 0 C1.89991613 1.0389652 3.78042473 2.10878211 5.66235352 3.17993164 C25.24555392 14.18590907 47.06110029 15.69220722 68.6015625 10.390625 C71.51251353 9.44482864 74.34281286 8.4237838 77.171875 7.2578125 C85.67600986 4.22257465 96.75225664 3.60889736 105.0390625 7.390625 C112.97984825 12.01949025 118.57566031 19.54636085 121.1796875 28.34375 C123.00190148 37.18486228 120.9875798 44.60759429 116.6015625 52.390625 C106.82165647 66.1378514 86.55490469 69.77053582 71.01953125 73.17578125 C65.45822268 74.10152312 60.02700776 74.42847902 54.3984375 74.58203125 C52.72346191 74.63073364 52.72346191 74.63073364 51.01464844 74.68041992 C48.77873804 74.73623771 46.54222674 74.77229489 44.30566406 74.78637695 C36.17821563 74.93240768 36.17821563 74.93240768 29.6015625 79.390625 C27.4698015 82.68482185 25.72663999 86.13216316 23.9765625 89.640625 C17.38272723 102.29155174 9.48110758 113.51160527 -0.19140625 124.0078125 C-1.50669981 125.39776677 -1.50669981 125.39776677 -2.3984375 127.390625 C-4.35790628 128.39671996 -6.36200113 129.24054395 -8.390625 130.09765625 C-10.57309903 131.27849872 -10.57309903 131.27849872 -11.6640625 133.68359375 C-14.13234049 137.53610872 -17.47022523 139.44423441 -21.2734375 141.890625 C-26.14610043 145.05918724 -30.43945906 148.11553041 -34.3984375 152.390625 C-34.7284375 152.720625 -35.0584375 153.050625 -35.3984375 153.390625 C-35.90343187 158.78114632 -35.34646243 163.96071954 -34.3984375 169.265625 C-31.10693137 190.8853739 -32.95272298 212.26632155 -39.75244141 232.91455078 C-41.78601464 239.24175472 -42.83919621 244.18166242 -40.0234375 250.453125 C-36.83126037 254.02532322 -33.27915685 256.79748745 -29.4453125 259.65625 C-28.76984375 260.22859375 -28.094375 260.8009375 -27.3984375 261.390625 C-27.3984375 262.050625 -27.3984375 262.710625 -27.3984375 263.390625 C-26.82351562 263.63296875 -26.24859375 263.8753125 -25.65625 264.125 C-10.06956323 272.8621739 1.91760598 298.13232295 8.08081055 314.06201172 C9.84153475 318.40531455 11.51658133 321.02346106 15.6015625 323.390625 C18.77085048 323.90217194 18.77085048 323.90217194 22.1640625 323.828125 C31.09917524 324.24959258 38.97416888 326.51814566 45.6015625 332.765625 C52.52650778 340.51818569 53.97435493 347.56433493 53.87890625 357.77734375 C53.3246115 364.9987895 50.56886498 371.55492682 45.5 376.796875 C36.70331012 384.18175046 27.7151677 385.11782788 16.66601562 386.29150391 C3.13548096 387.77415859 -8.18458011 391.72777356 -20.02294922 398.44384766 C-25.204819 401.26197385 -29.50624674 402.17047378 -35.3984375 401.390625 C-40.02371131 399.54051548 -42.01313208 396.69167533 -44.3984375 392.390625 C-44.69020936 389.54639644 -44.77751175 387.1279223 -44.6484375 384.30859375 C-44.63329102 383.53614822 -44.61814453 382.7637027 -44.60253906 381.96784973 C-44.53799911 378.69464913 -44.42701754 375.42353269 -44.31640625 372.15161133 C-43.86495766 357.50774758 -44.93800143 343.14682564 -52.1484375 330.015625 C-52.49132812 329.36335938 -52.83421875 328.71109375 -53.1875 328.0390625 C-63.42147498 309.06512348 -79.4271836 294.72057376 -100.10498047 288.03759766 C-105.80293975 286.43023209 -111.63563495 285.28649984 -117.45507812 284.21362305 C-123.65402781 283.01976304 -128.9431137 281.94760434 -132.73046875 276.4609375 C-134.16690267 272.00883237 -134.3887575 267.97161445 -133.3984375 263.390625 C-129.96851227 258.04830354 -125.23514243 254.05271339 -120.3984375 250.015625 C-105.69916003 237.44540954 -97.47049575 217.85421923 -94.6484375 199.078125 C-92.88862054 173.1208249 -101.1950845 151.99628898 -117.296875 132.23046875 C-120.90977689 127.3483504 -122.02697017 123.46644078 -121.3984375 117.390625 C-119.96283138 113.42639447 -118.44079008 111.06887915 -114.87109375 108.74609375 C-110.37540116 106.9913071 -106.24423931 106.74919511 -101.4609375 106.453125 C-77.96623161 104.54041106 -56.99489256 95.64929215 -41.1484375 77.828125 C-26.56495716 59.30187961 -22.34327042 39.59526601 -21.96875 16.375 C-21.9378125 15.29476562 -21.906875 14.21453125 -21.875 13.1015625 C-21.85518066 12.12493652 -21.83536133 11.14831055 -21.81494141 10.14208984 C-21.14296336 5.70293829 -18.82890976 2.24935189 -15.3984375 -0.609375 C-9.59967878 -2.54229457 -5.51157077 -2.61007719 0 0 Z " fill="#8E6ADC" transform="translate(133.3984375,56.609375)"/>
<path d="M0 0 C5.11373943 3.90289998 8.11084679 8.24146834 11.0625 13.875 C14.16054936 19.7215752 17.90886771 24.64899856 22.25 29.625 C23.01183594 30.52992188 23.01183594 30.52992188 23.7890625 31.453125 C37.17643355 46.14490656 55.81811216 52.12702164 74.71313477 55.80200195 C80.73340657 57.02695285 85.90253533 58.22427406 89.58203125 63.5546875 C91.01877543 68.00775425 91.23591041 72.04234236 90.25 76.625 C86.73372047 82.14248008 81.77667508 86.19977417 76.8125 90.375 C62.2538624 103.02472533 54.26275033 122.16593614 51.5 140.9375 C49.74018304 166.8948001 58.046647 188.01933602 74.1484375 207.78515625 C77.76133939 212.6672746 78.87853267 216.54918422 78.25 222.625 C76.81439388 226.58923053 75.29235258 228.94674585 71.72265625 231.26953125 C67.22696366 233.0243179 63.09580181 233.26642989 58.3125 233.5625 C35.63292596 235.40885371 14.23297572 243.79887755 -1.00292969 261.24829102 C-3.97194223 264.79461155 -6.74443673 268.32394493 -8.875 272.4375 C-13.31831773 279.99114015 -21.00258189 284.83352147 -29.0625 287.875 C-38.77953915 289.85134695 -45.51860283 288.42682715 -53.9140625 283.3046875 C-60.82883962 278.56534588 -64.47463224 272.63825167 -66.75 264.625 C-68.6403742 249.61106643 -62.21895202 240.00736074 -53.48950195 228.56274414 C-42.36345991 214.32953676 -29.6863746 203.22529348 -14.640625 193.22265625 C-10.19211255 190.20997864 -10.19211255 190.20997864 -7.75 185.625 C-7.68830175 182.05051425 -7.68830175 182.05051425 -8.0625 178.1875 C-8.16175781 176.88941406 -8.26101563 175.59132813 -8.36328125 174.25390625 C-8.65780932 170.83059688 -8.65780932 170.83059688 -9.26367188 168.34204102 C-10.21557859 163.02388347 -9.93590985 157.57018068 -9.93530273 152.18017578 C-9.93747232 150.02746293 -9.9556055 147.87527748 -9.97460938 145.72265625 C-10.00758365 137.83216415 -9.56482741 130.337034 -7.75 122.625 C-7.58266357 121.8834668 -7.41532715 121.14193359 -7.24291992 120.37792969 C-6.7703025 118.34888175 -6.26715207 116.33060516 -5.75 114.3125 C-5.585 113.64927734 -5.42 112.98605469 -5.25 112.30273438 C-4.4903123 109.2966264 -3.65928469 106.36186127 -2.6484375 103.4296875 C-1.81671919 100.83327992 -1.42348568 98.7728493 -1.375 96.0625 C-1.34664063 95.33933594 -1.31828125 94.61617188 -1.2890625 93.87109375 C-2.37345095 88.5869975 -7.02055651 85.41723719 -11.0625 82.25 C-27.19164121 69.23163107 -42.13250452 50.47748645 -48.75 30.625 C-49.80295525 20.61526083 -48.57494539 12.94282456 -42.75 4.625 C-30.7813024 -8.72104773 -14.47766439 -9.64137564 0 0 Z " fill="#570E99" transform="translate(421.75,115.375)"/>
<path d="M0 0 C0.33 0 0.66 0 1 0 C1.01417969 0.67804688 1.02835938 1.35609375 1.04296875 2.0546875 C1.48458272 10.67212773 3.81238455 17.1231704 9.3125 23.8125 C18.2771695 31.10932401 25.39170833 32.89390053 37 32 C44.01044169 30.28239511 50.44426709 27.03649181 54.40234375 20.78515625 C55.26976652 19.23385234 56.11193791 17.66801461 56.921875 16.0859375 C58 14 58 14 60 11 C59.5014466 21.46962132 56.29542778 31.11371665 53 41 C52.48683458 45.41658766 52.53917589 48.97361902 54.375 53.0625 C57.56717713 56.63469822 61.11928065 59.40686245 64.953125 62.265625 C65.62859375 62.83796875 66.3040625 63.4103125 67 64 C67 64.66 67 65.32 67 66 C67.86238281 66.36351562 67.86238281 66.36351562 68.7421875 66.734375 C84.32887427 75.4715489 96.31604348 100.74169795 102.47924805 116.67138672 C104.23997225 121.01468955 105.91501883 123.63283606 110 126 C113.16928798 126.51154694 113.16928798 126.51154694 116.5625 126.4375 C125.49761274 126.85896758 133.37260638 129.12752066 140 135.375 C146.92494528 143.12756069 148.37279243 150.17370993 148.27734375 160.38671875 C147.723049 167.6081645 144.96730248 174.16430182 139.8984375 179.40625 C131.10174762 186.79112546 122.1136052 187.72720288 111.06445312 188.90087891 C97.53391846 190.38353359 86.21385739 194.33714856 74.37548828 201.05322266 C69.1936185 203.87134885 64.89219076 204.77984878 59 204 C54.37472619 202.14989048 52.38530542 199.30105033 50 195 C49.70822814 192.15577144 49.62092575 189.7372973 49.75 186.91796875 C49.76514648 186.14552322 49.78029297 185.3730777 49.79589844 184.57722473 C49.86043839 181.30402413 49.97141996 178.03290769 50.08203125 174.76098633 C50.53347984 160.11712258 49.46043607 145.75620064 42.25 132.625 C41.90710938 131.97273437 41.56421875 131.32046875 41.2109375 130.6484375 C30.97696252 111.67449848 14.9712539 97.32994876 -5.70654297 90.64697266 C-11.40450225 89.03960709 -17.23719745 87.89587484 -23.05664062 86.82299805 C-29.25559031 85.62913804 -34.5446762 84.55697934 -38.33203125 79.0703125 C-39.76846517 74.61820737 -39.99032 70.58098945 -39 66 C-35.57007477 60.65767854 -30.83670493 56.66208839 -26 52.625 C-10.60875701 39.46304419 -3.0500175 19.4845778 0 0 Z " fill="#8042DF" transform="translate(39,254)"/>
<path d="M0 0 C5.11373943 3.90289998 8.11084679 8.24146834 11.0625 13.875 C14.16054936 19.7215752 17.90886771 24.64899856 22.25 29.625 C23.01183594 30.52992188 23.01183594 30.52992188 23.7890625 31.453125 C37.17643355 46.14490656 55.81811216 52.12702164 74.71313477 55.80200195 C80.73340657 57.02695285 85.90253533 58.22427406 89.58203125 63.5546875 C91.01877543 68.00775425 91.23591041 72.04234236 90.25 76.625 C86.73372047 82.14248008 81.77667508 86.19977417 76.8125 90.375 C63.00919847 102.36842808 56.33590332 119.24789351 52.25 136.625 C51.92 136.625 51.59 136.625 51.25 136.625 C51.13785156 135.28308594 51.13785156 135.28308594 51.0234375 133.9140625 C49.91093608 123.6834122 47.60411231 115.81290735 39.375 109.1875 C31.46357111 103.89823031 24.08127327 102.38295031 14.671875 104.09375 C5.8577916 106.36486351 -0.12579756 110.8563399 -4.75 118.625 C-5.08 118.625 -5.41 118.625 -5.75 118.625 C-5.36901196 113.82455075 -4.87649499 109.6422649 -3.1875 105.125 C-1.62857708 100.71062422 -0.67625105 96.25818443 -1.75 91.625 C-4.3550019 87.79552716 -7.43424331 85.09307526 -11.0625 82.25 C-27.19164121 69.23163107 -42.13250452 50.47748645 -48.75 30.625 C-49.80295525 20.61526083 -48.57494539 12.94282456 -42.75 4.625 C-30.7813024 -8.72104773 -14.47766439 -9.64137564 0 0 Z " fill="#6520A3" transform="translate(421.75,115.375)"/>
<path d="M0 0 C1.89991613 1.0389652 3.78042473 2.10878211 5.66235352 3.17993164 C25.24555392 14.18590907 47.06110029 15.69220722 68.6015625 10.390625 C71.51251353 9.44482864 74.34281286 8.4237838 77.171875 7.2578125 C85.67600986 4.22257465 96.75225664 3.60889736 105.0390625 7.390625 C112.97984825 12.01949025 118.57566031 19.54636085 121.1796875 28.34375 C123.00190148 37.18486228 120.9875798 44.60759429 116.6015625 52.390625 C106.82165647 66.1378514 86.55490469 69.77053582 71.01953125 73.17578125 C65.45822268 74.10152312 60.02700776 74.42847902 54.3984375 74.58203125 C52.72346191 74.63073364 52.72346191 74.63073364 51.01464844 74.68041992 C48.77873804 74.73623771 46.54222674 74.77229489 44.30566406 74.78637695 C38.29452271 74.911103 34.21274086 75.10563932 29.6015625 79.390625 C27.87939176 81.68115598 27.87939176 81.68115598 26.7265625 84.140625 C26.31664062 84.93984375 25.90671875 85.7390625 25.484375 86.5625 C25.19304687 87.16578125 24.90171875 87.7690625 24.6015625 88.390625 C23.68715949 85.36553233 23.64793262 83.02156481 23.9140625 79.890625 C23.96974674 72.35097908 20.58326399 65.87240221 15.73828125 60.21484375 C9.5894872 54.46036114 3.12242532 51.22636027 -5.3359375 50.890625 C-15.49574501 51.29082072 -22.30673719 55.33854312 -29.3984375 62.390625 C-29.7284375 61.730625 -30.0584375 61.070625 -30.3984375 60.390625 C-29.71381859 58.65505601 -28.94771813 56.95146403 -28.1484375 55.265625 C-22.70212044 42.45165124 -22.0069723 29.66820553 -21.86425781 15.9074707 C-21.84459961 14.87710693 -21.82494141 13.84674316 -21.8046875 12.78515625 C-21.79759766 11.86581299 -21.79050781 10.94646973 -21.78320312 9.99926758 C-21.13945967 5.63480129 -18.7627223 2.19419567 -15.3984375 -0.609375 C-9.59967878 -2.54229457 -5.51157077 -2.61007719 0 0 Z " fill="#7F41DF" transform="translate(133.3984375,56.609375)"/>
<path d="M0 0 C6.06762428 4.21214691 11.23049467 9.70282699 13.609375 16.82421875 C15.52321668 27.48431689 13.91222892 36.52977525 8.375 45.6875 C1.95038946 51.94304184 -5.0639332 55.61469741 -13.38867188 58.73022461 C-19.50145162 61.06732758 -24.61025086 64.34940887 -30 68 C-31.78309683 69.11795311 -33.57456327 70.2226922 -35.375 71.3125 C-36.14585937 71.78300781 -36.91671875 72.25351562 -37.7109375 72.73828125 C-44.9430704 76.72459341 -51.93468453 76.79575569 -60 76 C-67.69106777 73.72417546 -74.41013675 68.73755473 -78.28125 61.65625 C-81.84410767 53.81796312 -83.74014228 45.95074563 -81.24609375 37.421875 C-80.27228174 35.17637906 -79.24922295 33.105172 -78 31 C-77.44054687 30.04351562 -76.88109375 29.08703125 -76.3046875 28.1015625 C-73.5540913 24.39991269 -70.57327632 21.95578064 -66.875 19.25 C-66.17487793 18.7341333 -65.47475586 18.2182666 -64.75341797 17.68676758 C-47.38410273 5.17770884 -21.26653801 -12.15743067 0 0 Z " fill="#570E99" transform="translate(314,390)"/>
<path d="M0 0 C9.33157377 7.62348223 16.63505449 19.45293488 18.71484375 31.40625 C18.78382617 33.99998914 18.80919127 36.56435197 18.77734375 39.15625 C18.77283203 39.85363281 18.76832031 40.55101562 18.76367188 41.26953125 C18.75194395 42.98180803 18.73401028 44.69404033 18.71484375 46.40625 C18.20695312 46.00792969 17.6990625 45.60960937 17.17578125 45.19921875 C16.48742187 44.66941406 15.7990625 44.13960937 15.08984375 43.59375 C14.41695313 43.07167969 13.7440625 42.54960937 13.05078125 42.01171875 C5.6867878 36.95051255 -0.51760274 36.52347573 -9.28515625 37.40625 C-15.54239191 39.06431875 -19.7845095 43.07348906 -23.28515625 48.40625 C-26.42728544 54.10951091 -27.18021835 59.98169312 -26.28515625 66.40625 C-23.7463352 75.00548261 -18.7745883 79.68465153 -11.28515625 84.40625 C-9.80015625 85.39625 -9.80015625 85.39625 -8.28515625 86.40625 C-10.32160575 87.25225276 -12.36459112 88.0825325 -14.41015625 88.90625 C-15.54710937 89.3703125 -16.6840625 89.834375 -17.85546875 90.3125 C-21.2600781 91.39825241 -23.75070129 91.49298509 -27.28515625 91.40625 C-27.5393634 90.69738647 -27.79357056 89.98852295 -28.05548096 89.25817871 C-30.46272132 82.54831351 -32.87476126 75.84020205 -35.29208755 69.13396454 C-36.53441839 65.68692254 -37.77494228 62.23925335 -39.01123047 58.79003906 C-40.20641313 55.45572355 -41.4064806 52.12320255 -42.60982513 48.79182434 C-43.28661638 46.91429563 -43.95845595 45.03498435 -44.63018799 43.15563965 C-48.10127169 32.50534006 -48.10127169 32.50534006 -54.28515625 23.40625 C-57.32518198 22.91015472 -60.23950957 22.96557951 -63.28515625 23.40625 C-65.53978874 24.8290764 -65.53978874 24.8290764 -66.28515625 27.40625 C-66.86255795 33.73327147 -65.07937466 38.45663002 -62.78515625 44.21875 C-62.12627681 45.91173944 -61.46989759 47.60570473 -60.81640625 49.30078125 C-60.52314453 50.04175049 -60.22988281 50.78271973 -59.92773438 51.54614258 C-59.28515625 53.40625 -59.28515625 53.40625 -59.28515625 55.40625 C-60.09339844 55.72078125 -60.90164063 56.0353125 -61.734375 56.359375 C-62.80300781 56.78734375 -63.87164062 57.2153125 -64.97265625 57.65625 C-66.02839844 58.07390625 -67.08414062 58.4915625 -68.171875 58.921875 C-71.36988455 60.29209863 -71.36988455 60.29209863 -73.9921875 62.640625 C-75.12720703 63.51460937 -75.12720703 63.51460937 -76.28515625 64.40625 C-79.28515625 63.40625 -79.28515625 63.40625 -80.43334961 61.32202148 C-83.03570714 54.24130591 -83.95746268 47.99411028 -83.84765625 40.46875 C-83.83814941 39.41550537 -83.82864258 38.36226074 -83.81884766 37.27709961 C-83.60484077 29.29142642 -82.54132731 23.29024171 -78.28515625 16.40625 C-77.82753906 15.60574219 -77.36992187 14.80523437 -76.8984375 13.98046875 C-69.72995647 2.29486269 -58.51027593 -6.6904232 -45.10546875 -10.16015625 C-28.98543324 -12.63844426 -13.44588048 -9.37763972 0 0 Z " fill="#8042DF" transform="translate(337.28515625,108.59375)"/>
<path d="M0 0 C0.33 0 0.66 0 1 0 C1.01417969 0.67804688 1.02835938 1.35609375 1.04296875 2.0546875 C1.48458272 10.67212773 3.81238455 17.1231704 9.3125 23.8125 C18.2771695 31.10932401 25.39170833 32.89390053 37 32 C44.01044169 30.28239511 50.44426709 27.03649181 54.40234375 20.78515625 C55.26976652 19.23385234 56.11193791 17.66801461 56.921875 16.0859375 C58 14 58 14 60 11 C59.5014466 21.46962132 56.29542778 31.11371665 53 41 C52.48683458 45.41658766 52.53917589 48.97361902 54.375 53.0625 C58.14092239 57.27674648 62.49259291 60.61084276 67 64 C66.01 64.495 66.01 64.495 65 65 C63.865625 64.525625 62.73125 64.05125 61.5625 63.5625 C54.25043306 60.68800992 46.39994256 61.15361601 39.125 63.97265625 C31.29866733 67.75634282 26.61843139 73.09954945 23 81 C20.98801585 88.75169353 20.80494859 96.45338525 24.5625 103.625 C25.03816406 104.42164063 25.51382813 105.21828125 26.00390625 106.0390625 C26.33261719 106.68617188 26.66132812 107.33328125 27 108 C26.67 108.66 26.34 109.32 26 110 C25.57332031 109.5875 25.14664063 109.175 24.70703125 108.75 C10.83340589 95.93477493 -4.77150274 90.26869887 -22.95458984 86.87426758 C-29.17663402 85.65439312 -34.52909666 84.57954912 -38.33203125 79.0703125 C-39.76846517 74.61820737 -39.99032 70.58098945 -39 66 C-35.57007477 60.65767854 -30.83670493 56.66208839 -26 52.625 C-10.60875701 39.46304419 -3.0500175 19.4845778 0 0 Z " fill="#8042E0" transform="translate(39,254)"/>
<path d="M0 0 C10.69925246 9.42413607 23.70127755 25.16134053 27.875 38.875 C27.91625 39.90625 27.9575 40.9375 28 42 C28.06058594 42.88429688 28.12117188 43.76859375 28.18359375 44.6796875 C28.55763298 53.58862201 26.81843608 60.69619264 21.3125 67.8125 C16.05996417 73.46599277 9.29549945 76.64625299 1.6796875 77.2734375 C-6.54459587 77.49297689 -13.18779893 77.11552927 -20 72 C-21.74807056 70.30028033 -23.2742943 68.59033408 -24.74609375 66.6484375 C-25.95720166 64.9717754 -25.95720166 64.9717754 -27.453125 63.5859375 C-29.35828933 61.63266296 -30.78558882 59.51053057 -32.3125 57.25 C-34.41079633 54.18631103 -36.50377331 51.37416303 -39.0625 48.6875 C-45.44084998 41.36357253 -48.96099617 32.48015753 -48.38671875 22.78125 C-47.16979071 14.02920189 -43.76994582 6.91848009 -36.85546875 1.23828125 C-25.30264418 -6.89002632 -12.09483043 -7.53942842 0 0 Z " fill="#8E6ADC" transform="translate(108,320)"/>
<path d="M0 0 C3.0625 2.125 3.0625 2.125 5 5 C5.57044617 8.99312318 5.14259602 11.61010491 3 15 C1.12734985 16.15727234 1.12734985 16.15727234 -1.10693359 17.05737305 C-1.91523621 17.38820892 -2.72353882 17.7190448 -3.55633545 18.05990601 C-4.36274475 18.37013702 -5.16915405 18.68036804 -6 19 C-6.68378723 19.2656778 -7.36757446 19.53135559 -8.07208252 19.80508423 C-10.13686996 20.58656322 -12.21052114 21.33793722 -14.2890625 22.08203125 C-15.08019943 22.36843979 -15.87133636 22.65484833 -16.68644714 22.94993591 C-18.41566776 23.57558102 -20.14541961 24.19975937 -21.87564087 24.82263184 C-25.72690827 26.20922661 -29.57546278 27.60328378 -33.42420959 28.99685669 C-35.53943166 29.7627231 -37.65478155 30.52823653 -39.77024841 31.29342651 C-51.46065768 35.52359132 -63.13752172 39.79071725 -74.81411934 44.05880737 C-79.48865073 45.76715063 -84.16446649 47.47194548 -88.84082031 49.17529297 C-91.52807222 50.15441003 -94.21524114 51.13375452 -96.90234375 52.11328125 C-97.56746601 52.35572319 -98.23258827 52.59816513 -98.91786575 52.8479538 C-107.62852432 56.02435635 -116.32847269 59.22825952 -125.0186615 62.4602356 C-130.09605296 64.34833078 -135.17816921 66.22358408 -140.26034546 68.09875488 C-142.64839478 68.98320714 -145.03453081 69.87284457 -147.41860962 70.76794434 C-150.70925182 72.00301285 -154.0060281 73.22013217 -157.3046875 74.43359375 C-158.26117691 74.79801071 -159.21766632 75.16242767 -160.20314026 75.53788757 C-165.74413931 77.5525341 -171.07281251 79.05100573 -177 78 C-180.31578076 75.33120085 -180.89008359 73.68392436 -181.5625 69.5 C-180.84141856 65.01327104 -179.42917661 63.9139612 -176 61 C-172.81689453 59.46459961 -172.81689453 59.46459961 -169.1328125 58.15234375 C-168.10497902 57.77927345 -168.10497902 57.77927345 -167.05638123 57.39866638 C-164.75041935 56.56513181 -162.43786374 55.75166788 -160.125 54.9375 C-158.4473246 54.33491601 -156.77017518 53.73086601 -155.09350586 53.12548828 C-151.4020876 51.79461618 -147.70803982 50.47139357 -144.01220703 49.15283203 C-137.72682694 46.90691856 -131.4543353 44.62626118 -125.18359375 42.33984375 C-124.08029724 41.93764618 -122.97700073 41.53544861 -121.840271 41.12106323 C-119.56775695 40.29261625 -117.29525547 39.46413481 -115.02276611 38.63562012 C-109.17944985 36.50682372 -103.33385546 34.38430546 -97.48828125 32.26171875 C-95.09456064 31.39242408 -92.70084321 30.52312063 -90.30712891 29.65380859 C-89.10864319 29.21856873 -87.91015747 28.78332886 -86.675354 28.3348999 C-76.72357315 24.72038242 -66.77268393 21.10341205 -56.82199097 17.48590088 C-53.35876121 16.22703416 -49.89533343 14.9687135 -46.43188477 13.71044922 C-44.80773399 13.11979675 -44.80773399 13.11979675 -43.15077209 12.51721191 C-41.0463839 11.75266269 -38.94136797 10.98983871 -36.8356781 10.22888184 C-32.04475216 8.49364238 -27.27104457 6.7293456 -22.52539062 4.87353516 C-21.24254181 4.37881462 -21.24254181 4.37881462 -19.93377686 3.87409973 C-18.37090585 3.26901345 -16.81242 2.6523887 -15.2600708 2.02079773 C-10.23175984 0.08682359 -5.38851664 -0.84917271 0 0 Z " fill="#FCC452" transform="translate(387,303)"/>
<path d="M0 0 C3.59995291 1.18379564 5.34053326 3.66993069 7.31640625 6.76171875 C9.26236345 10.99042751 10.82840053 15.33873361 12.3984375 19.71875 C12.86144545 20.98923299 13.3251367 22.25946715 13.78947449 23.52946472 C14.75650196 26.18348502 15.71429992 28.84060909 16.66577148 31.50024414 C17.87915947 34.88929574 19.1165718 38.26897508 20.36128712 41.64662647 C21.32307907 44.26564243 22.27110959 46.88948304 23.21527672 49.5148983 C23.88311496 51.36382909 24.56285986 53.2084454 25.24287415 55.05293274 C27.54489501 61.55054869 29.04059612 66.85647762 28.31640625 73.76171875 C22.59354566 80.50247944 9.73937946 84.36248938 1.15234375 85.421875 C-7.26694992 85.75624613 -13.19238693 84.1992427 -19.68359375 78.76171875 C-24.62198177 73.95328831 -27.86995357 67.12351227 -28.12109375 60.19921875 C-27.70109704 52.63927793 -24.90472501 47.11579981 -19.78125 41.58984375 C-14.78874654 37.23883514 -9.11725046 34.97580556 -2.68359375 33.76171875 C-2.9259375 33.16222412 -3.16828125 32.56272949 -3.41796875 31.94506836 C-4.51898182 29.20126969 -5.60137019 26.45047967 -6.68359375 23.69921875 C-7.06515625 22.75626953 -7.44671875 21.81332031 -7.83984375 20.84179688 C-9.89057572 15.58679619 -11.3237488 11.41274268 -10.68359375 5.76171875 C-8.14888662 0.58209983 -5.33463646 0.17627494 0 0 Z " fill="#FDC452" transform="translate(280.68359375,130.23828125)"/>
<path d="M0 0 C9.86087392 5.12094843 15.76039174 12.57557336 19.96484375 22.8125 C21.66357456 33.3823806 20.37164842 42.72389703 14.40234375 51.8125 C13.78359375 52.6375 13.16484375 53.4625 12.52734375 54.3125 C11.86734375 55.3025 11.20734375 56.2925 10.52734375 57.3125 C8.59375 57.578125 8.59375 57.578125 6.08984375 57.5625 C-0.65198385 57.94596374 -6.39656847 60.31481347 -12.57006836 62.87402344 C-18.5363512 65.26474821 -23.64743547 66.60746554 -29.9765625 64.46484375 C-38.6984833 59.31775197 -45.16909515 53.15435912 -48.47265625 43.3125 C-48.14265625 42.3225 -47.81265625 41.3325 -47.47265625 40.3125 C-46.81265625 40.8075 -46.15265625 41.3025 -45.47265625 41.8125 C-39.79372486 44.65196569 -34.75276265 43.57957204 -28.94921875 41.66796875 C-26.99379063 40.95869839 -25.04328321 40.23573046 -23.09765625 39.5 C-22.10121094 39.14357422 -21.10476563 38.78714844 -20.078125 38.41992188 C-14.41304405 36.54584796 -14.41304405 36.54584796 -10.47265625 32.3125 C-10.12099808 30.3620927 -10.12099808 30.3620927 -10.16015625 28.3125 C-10.14339844 27.631875 -10.12664062 26.95125 -10.109375 26.25 C-10.58767083 23.69908891 -11.39875522 22.84334794 -13.47265625 21.3125 C-19.72165707 19.86741856 -25.39044006 22.12387007 -31.08984375 24.53515625 C-33.47265625 25.3125 -33.47265625 25.3125 -36.47265625 24.3125 C-37.421875 22.02734375 -37.421875 22.02734375 -38.16015625 19.25 C-38.41152344 18.33089844 -38.66289062 17.41179687 -38.921875 16.46484375 C-39.10363281 15.75457031 -39.28539062 15.04429687 -39.47265625 14.3125 C-38.71339844 13.99796875 -37.95414062 13.6834375 -37.171875 13.359375 C-36.17800781 12.93140625 -35.18414062 12.5034375 -34.16015625 12.0625 C-33.17402344 11.64484375 -32.18789063 11.2271875 -31.171875 10.796875 C-28.33303179 9.23571665 -27.04633083 8.11959521 -25.47265625 5.3125 C-25.22201893 1.64535151 -25.22201893 1.64535151 -25.47265625 -1.6875 C-17.29305805 -4.41403273 -7.83977205 -3.31549831 0 0 Z " fill="#6722A2" transform="translate(378.47265625,245.6875)"/>
<path d="M0 0 C0.75 1.8125 0.75 1.8125 1 4 C2.14266444 10.3927443 4.12796976 16.3910565 9.046875 20.859375 C13.73348672 24.12384247 18.5897883 26.22938526 24 28 C24.65504334 39.60882372 23.40143815 47.35278486 15.75 56.3125 C9.44850934 62.90371437 2.74608085 67.51325828 -6.55078125 68.30078125 C-20.19806066 68.34329614 -28.12456763 65.62611275 -38 56.25 C-40 54 -40 54 -40 52 C-39.27554688 51.75765625 -38.55109375 51.5153125 -37.8046875 51.265625 C-29.02894359 48.22336711 -22.76803397 45.18662436 -18 37 C-15.23517676 31.07537877 -14.84540516 24.60340995 -16.83984375 18.37890625 C-19.66694619 12.12501296 -23.54640622 8.08681221 -29 4 C-22.47301691 -3.2589812 -8.36858769 -4.67394526 0 0 Z " fill="#8042DF" transform="translate(253,188)"/>
<path d="M0 0 C3.34638613 2.49198967 4.78809054 3.86981619 5.5625 8 C4.83990888 11.85381931 3.77448984 13.20841006 1 16 C-1.9392462 17.5667778 -4.99283601 18.69174938 -8.125 19.8125 C-8.94871094 20.12380859 -9.77242187 20.43511719 -10.62109375 20.75585938 C-16.64821429 23 -16.64821429 23 -19 23 C-18.76196655 23.63813629 -18.52393311 24.27627258 -18.27868652 24.93374634 C-15.80150278 31.58058997 -13.33798829 38.23238377 -10.88232422 44.88720703 C-9.96426857 47.36962172 -9.04274393 49.85075638 -8.11767578 52.33056641 C-6.78803441 55.8967474 -5.47096673 59.46735677 -4.15625 63.0390625 C-3.53284729 64.69876572 -3.53284729 64.69876572 -2.89685059 66.39199829 C-2.5164563 67.43262421 -2.13606201 68.47325012 -1.74414062 69.54541016 C-1.40660767 70.4558609 -1.06907471 71.36631165 -0.72131348 72.30435181 C0.09419916 75.3520353 0.25071779 77.8578079 0 81 C-1.79993774 83.69990662 -3.083773 85.5418865 -6 87 C-12.24870466 87.57858377 -12.24870466 87.57858377 -15.0390625 85.4296875 C-17.44665751 82.44657177 -18.7043473 79.37194017 -20 75.8125 C-20.41971069 74.69681641 -20.41971069 74.69681641 -20.84790039 73.55859375 C-21.91227784 70.71064242 -22.95572294 67.85538488 -24 65 C-24.49682873 63.65268286 -24.99408992 62.30552514 -25.49169922 60.95849609 C-27.14730721 56.47489011 -28.79392045 51.98802748 -30.4375 47.5 C-30.71247314 46.75078278 -30.98744629 46.00156555 -31.27075195 45.22964478 C-32.05777661 43.08146368 -32.84016678 40.93165417 -33.62109375 38.78125 C-33.86137802 38.12678391 -34.10166229 37.47231781 -34.34922791 36.79801941 C-36 32.22962313 -36 32.22962313 -36 30 C-38.81374361 30.97570961 -41.6259936 31.95538306 -44.4375 32.9375 C-45.64116211 33.35418945 -45.64116211 33.35418945 -46.86914062 33.77929688 C-47.63291016 34.04677734 -48.39667969 34.31425781 -49.18359375 34.58984375 C-50.24404907 34.95903931 -50.24404907 34.95903931 -51.32592773 35.33569336 C-53.00682632 35.87467975 -53.00682632 35.87467975 -54 37 C-58.16400962 37.40038554 -60.32250696 37.44184328 -63.875 35.125 C-66.38666318 32.61333682 -66.92153796 31.70615837 -67.3125 28.1875 C-66.91223423 24.1047891 -65.8758286 22.9083638 -63 20 C-60.42960596 18.58472978 -57.74475992 17.62676758 -54.98046875 16.65625 C-53.35462818 16.05606209 -51.72881535 15.45579904 -50.10302734 14.85546875 C-49.26189392 14.55108887 -48.4207605 14.24670898 -47.55413818 13.93310547 C-44.22917167 12.71839263 -40.92965917 11.44188187 -37.62844849 10.16430664 C-34.35630876 8.90282551 -31.07437235 7.6681392 -27.79125977 6.43554688 C-26.1167722 5.80355275 -24.44461012 5.16536771 -22.7746582 4.52148438 C-20.30963617 3.57210011 -17.83764492 2.64346778 -15.36328125 1.71875 C-14.62467361 1.42931519 -13.88606598 1.13988037 -13.12507629 0.8416748 C-8.38957895 -0.89678538 -5.03144172 -1.28399501 0 0 Z " fill="#FCC452" transform="translate(187,166)"/>
<path d="M0 0 C2.41475077 5.57506975 4.72754557 11.14526401 6.71484375 16.88671875 C7.15848267 18.15261841 7.15848267 18.15261841 7.61108398 19.4440918 C8.19553693 21.12457461 8.76707698 22.80961416 9.32446289 24.49926758 C11.0036002 29.29518339 12.37217715 32.40240372 17 35 C19.8785546 35.68594863 19.8785546 35.68594863 22.8125 35.75 C24.27623047 35.83507812 24.27623047 35.83507812 25.76953125 35.921875 C26.87361328 35.96054687 26.87361328 35.96054687 28 36 C26.40373994 44.6234739 22.64341649 50.30420286 16 56 C8.2408344 61.30388432 0.20953855 62.17707712 -9 61 C-12.31589187 60.07919103 -15.06978905 58.78970968 -18 57 C-18.63550781 56.62617188 -19.27101562 56.25234375 -19.92578125 55.8671875 C-26.42810661 51.66225761 -30.30459743 45.90817077 -32.4921875 38.515625 C-34.47347874 28.70061302 -33.05297627 20.16757258 -27.5625 11.8125 C-20.39525614 2.71561357 -11.44617223 -1.1955383 0 0 Z " fill="#6621A2" transform="translate(188,301)"/>
<path d="M0 0 C6.86056525 3.89726228 11.22556193 9.73286091 13.32421875 17.3203125 C14.55424405 25.37253995 12.46130998 31.62395699 8.00390625 38.296875 C4.55407264 42.7269892 0.8024259 45.85541217 -4.67578125 47.3203125 C-12.65835477 48.22487983 -20.09245799 48.32422861 -26.67578125 43.3203125 C-33.05093353 38.22277171 -36.10877859 33.34688664 -37.0234375 25.23828125 C-37.36561963 17.70150054 -36.44595724 12.26801304 -31.67578125 6.3203125 C-22.83355559 -3.23601214 -11.79949205 -5.29773112 0 0 Z " fill="#FDC452" transform="translate(224.67578125,191.6796875)"/>
<path d="M0 0 C6.62218049 4.3819633 11.28788747 10.09857158 13 17.9375 C14.11911859 26.47596039 11.72007163 32.50479068 7.3125 39.6875 C1.98083021 44.8750706 -4.31983536 47.68799731 -11.6875 48.1875 C-18.98836335 48.05179622 -25.14148087 45.65697831 -30.49609375 40.6875 C-35.44176301 34.93253941 -37.39602408 28.15675379 -37.265625 20.69140625 C-36.44489299 12.18234649 -32.71705202 6.96345024 -26.31640625 1.53125 C-18.83306056 -3.61749375 -8.10037646 -4.18794973 0 0 Z " fill="#FDC552" transform="translate(347,147.0625)"/>
<path d="M0 0 C0.33 0.66 0.66 1.32 1 2 C0.54560547 3.10601562 0.54560547 3.10601562 0.08203125 4.234375 C-2.61589645 11.13016133 -1.79373091 20.10717048 0.90234375 26.94140625 C5.01567949 34.65574055 11.56520845 39.87774317 19.84765625 42.609375 C28.74735988 44.22456622 36.27348015 43.60619453 44 39 C44.66 39.33 45.32 39.66 46 40 C44.95199219 41.33804688 44.95199219 41.33804688 43.8828125 42.703125 C42.96336137 43.88527646 42.04410051 45.06757592 41.125 46.25 C40.66480469 46.83652344 40.20460938 47.42304688 39.73046875 48.02734375 C37.07100583 51.45505579 37.07100583 51.45505579 34.91015625 55.203125 C31.44479192 62.04461681 22.53914613 66.66447316 15.6875 69.25 C5.97046085 71.22634695 -0.76860283 69.80182715 -9.1640625 64.6796875 C-16.07883962 59.94034588 -19.72463224 54.01325167 -22 46 C-24.03525794 29.83535521 -16.18349355 19.64543516 -6.8046875 7.46875 C-4.693925 4.79502248 -2.48941507 2.33457107 0 0 Z " fill="#6620A3" transform="translate(377,334)"/>
<path d="M0 0 C2.62290656 3.2587627 2.80269074 5.345877 2.52734375 9.44921875 C2.0625 11.5625 2.0625 11.5625 0.25 13.875 C-4.30423085 16.28606339 -9.04991987 17.95327922 -13.9375 19.5625 C-12.70773437 19.80484375 -11.47796875 20.0471875 -10.2109375 20.296875 C-8.57798232 20.6347278 -6.94517754 20.97330808 -5.3125 21.3125 C-4.10013672 21.54839844 -4.10013672 21.54839844 -2.86328125 21.7890625 C3.26440573 23.08434593 7.93005596 24.81692194 11.91015625 29.94140625 C13.99688117 34.68782125 13.68821415 39.48802697 13.0625 44.5625 C9.39546144 52.02754279 3.62410102 54.38063006 -3.75 57.25 C-4.53181641 57.57033203 -5.31363281 57.89066406 -6.11914062 58.22070312 C-10.86918214 60.0818305 -14.75303323 61.11611768 -19.9375 60.5625 C-22.86289902 58.57073896 -24.52479794 57.11325925 -25.453125 53.625 C-25.63935115 51.39028617 -25.54236774 49.72336808 -24.9375 47.5625 C-20.78323762 42.76912033 -15.95249226 41.20659788 -9.9375 39.5625 C-11.65646484 39.23378906 -11.65646484 39.23378906 -13.41015625 38.8984375 C-28.61586737 35.79270405 -28.61586737 35.79270405 -33.9375 29.5625 C-36.82899878 24.85263601 -36.54480462 19.91923821 -35.9375 14.5625 C-32.89034366 7.70639824 -27.19140014 4.92861263 -20.55078125 2.140625 C-6.49334853 -3.17759609 -6.49334853 -3.17759609 0 0 Z " fill="#FDC452" transform="translate(305.9375,248.4375)"/>
<path d="M0 0 C3.11009701 2.62988552 4.66486148 4.95511078 6.04296875 8.76171875 C6.39045166 9.70466797 6.73793457 10.64761719 7.09594727 11.61914062 C7.45615967 12.63169922 7.81637207 13.64425781 8.1875 14.6875 C8.56898193 15.73228516 8.95046387 16.77707031 9.34350586 17.85351562 C10.57364813 21.2316968 11.78734575 24.61550577 13 28 C13.86129935 30.38175636 14.72327854 32.76326699 15.5859375 35.14453125 C17.73683596 41.09177177 19.87360207 47.04395865 22 53 C27.02021818 52.38320803 31.18103155 50.83141518 35.8125 48.9375 C41.75405227 46.630556 46.56137726 44.83893688 53 46 C56.50811779 48.43420418 57.77376734 49.79342584 58.5625 54 C57.85616619 57.76711364 56.63899161 59.2322837 54 62 C50.95068359 63.57739258 50.95068359 63.57739258 47.3984375 64.89453125 C46.76193268 65.13161301 46.12542786 65.36869476 45.46963501 65.61296082 C44.12595575 66.10861926 42.7793754 66.5964757 41.43017578 67.0769043 C39.39323561 67.80597305 37.3708889 68.56781747 35.34765625 69.33398438 C20.30683516 74.89425718 20.30683516 74.89425718 14 73 C7.02719057 68.90679986 5.38078674 62.41423519 2.78515625 55.0703125 C2.32167647 53.79343007 1.85701063 52.51697759 1.39122009 51.24093628 C0.42230853 48.57375678 -0.53342889 45.90233077 -1.47973633 43.22705078 C-2.68935387 39.81011532 -3.92916826 36.40510732 -5.17882442 33.00264168 C-6.14182697 30.37125621 -7.0895293 27.73456079 -8.03268623 25.09600449 C-8.70225427 23.23039049 -9.38372525 21.36906219 -10.06541443 19.50784302 C-13.83223733 8.76044689 -13.83223733 8.76044689 -12 3 C-8.25027671 -1.41143916 -5.44353178 -1.58357288 0 0 Z " fill="#FCC452" transform="translate(191,264)"/>
<path d="M0 0 C4.77007545 3.13462101 6.14992096 8.84339671 8 14 C12.12973628 13.43260132 12.12973628 13.43260132 16 12 C19.98558966 11.62400098 22.32579625 11.63358492 25.875 13.5625 C28.71117869 16.81576379 29.14842915 18.69555461 29 23 C25.51805071 29.03537878 21.58348461 30.23130264 15 32 C16.485 36.95 16.485 36.95 18 42 C19.588125 41.525625 21.17625 41.05125 22.8125 40.5625 C23.70582031 40.29566406 24.59914063 40.02882813 25.51953125 39.75390625 C27.35473055 39.19612127 29.18033726 38.60655425 31 38 C35.26952964 37.52036592 38.79396714 37.29402955 42.5625 39.5 C44.5445707 42.94707948 44.84327226 46.11031176 44 50 C41.86084938 53.47548057 39.97618726 54.74407516 36.17578125 56.140625 C35.22896484 56.48867188 34.28214844 56.83671875 33.30664062 57.1953125 C32.31857422 57.54335938 31.33050781 57.89140625 30.3125 58.25 C29.34376953 58.61351562 28.37503906 58.97703125 27.37695312 59.3515625 C20.58403972 61.79499044 14.79554047 63.48844724 7.8125 60.75 C0.36308914 53.46613161 -2.41084061 39.8503517 -5.98632812 30.09838867 C-6.5829709 28.47974928 -7.18626221 26.86354636 -7.79589844 25.24975586 C-8.68907192 22.88408533 -9.56143273 20.51163057 -10.4296875 18.13671875 C-10.70352264 17.42303635 -10.97735779 16.70935394 -11.25949097 15.9740448 C-12.93292785 11.30413524 -13.24657259 7.94524935 -12 3 C-8.25027671 -1.41143916 -5.44353178 -1.58357288 0 0 Z " fill="#FCC452" transform="translate(325,228)"/>
<path d="M0 0 C3.82972669 1.4143877 6.2201212 5.09293395 8.01287842 8.64445496 C8.88101029 10.73687331 9.66942183 12.84259611 10.4296875 14.9765625 C10.71353302 15.75052872 10.99737854 16.52449493 11.28982544 17.32191467 C11.88241452 18.94924347 12.46866167 20.57889444 13.04882812 22.21069336 C13.93636777 24.69604821 14.85345323 27.1690772 15.7734375 29.64257812 C16.34816997 31.23241767 16.92114696 32.82289315 17.4921875 34.4140625 C17.90294022 35.5128196 17.90294022 35.5128196 18.32199097 36.6337738 C19.96800386 41.35768624 20.32617108 44.77585589 19.0625 49.76171875 C16.32938993 52.89675677 14.65822746 53.65533885 10.5625 54.38671875 C6.61994854 53.6826917 5.63566194 52.59886614 3.22909546 49.52053833 C1.36125018 46.7044783 0.32700439 43.75831506 -0.76171875 40.5703125 C-0.99405716 39.90258316 -1.22639557 39.23485382 -1.46577454 38.54689026 C-2.19777153 36.4349847 -2.91180429 34.31753811 -3.625 32.19921875 C-4.35300536 30.07890614 -5.08461002 27.95985809 -5.81636047 25.84083557 C-6.47657225 23.92243872 -7.12853511 22.00120885 -7.7800293 20.07983398 C-8.49216472 18.03835908 -9.24450767 16.00976663 -10.06176758 14.00805664 C-11.23637706 10.99507035 -11.40528106 8.96936032 -10.9375 5.76171875 C-7.81057695 1.26676686 -5.21234507 0.19966644 0 0 Z " fill="#FCC353" transform="translate(252.9375,264.23828125)"/>
<path d="M0 0 C0.67260351 1.76858691 1.33788395 3.53996016 2 5.3125 C2.37125 6.29863281 2.7425 7.28476563 3.125 8.30078125 C4 11 4 11 4 14 C-0.81800521 15.57322619 -4.86408392 16.49383808 -10 16 C-11.9375 14.9375 -11.9375 14.9375 -13 13 C-13.49370835 9.12086298 -13.65754073 6.93573103 -11.375 3.6875 C-7.74686714 1.10961612 -4.44513489 0 0 0 Z " fill="#8547D9" transform="translate(285,181)"/>
<path d="M0 0 C3.4375 1 3.4375 1 5.375 2.75 C6.67120853 5.49491218 6.96237013 7.00074212 6.4375 10 C4.875 12.3125 4.875 12.3125 2.4375 14 C-1.02480815 14.42519574 -3.3972167 14.63902633 -6.5 12.9375 C-8.20152633 9.8347167 -7.98769574 7.46230815 -7.5625 4 C-5.30132583 0.38212133 -4.292718 0 0 0 Z " fill="#8445D6" transform="translate(213.5625,207)"/>
<path d="M0 0 C2.4375 1.5625 2.4375 1.5625 4 4 C4 7.82389746 3.85254277 10.05611336 1.25 12.9375 C-1.52291498 14.24693207 -2.97519717 14.60496057 -6 14 C-8.375 11.9375 -8.375 11.9375 -10 9 C-9.9375 5.3125 -9.9375 5.3125 -9 2 C-5.50875983 -0.32749345 -4.10777749 -0.50299316 0 0 Z " fill="#8446DA" transform="translate(338,163)"/>
<path d="M0 0 C3.63 1.98 7.26 3.96 11 6 C10.67 6.66 10.34 7.32 10 8 C3.59181818 8.36272727 3.59181818 8.36272727 1.0625 6.8125 C0 5 0 5 0 0 Z " fill="#7930BC" transform="translate(272,189)"/>
</svg>
